<svg width="24" height="24" viewBox="0 0 24 24" fill="none" xmlns="http://www.w3.org/2000/svg">
<path fill-rule="evenodd" clip-rule="evenodd" d="M11.9993 22C17.5221 22 21.9993 17.5228 21.9993 12C21.9993 6.47715 17.5221 2 11.9993 2C6.47642 2 1.99927 6.47715 1.99927 12C1.99927 17.5228 6.47642 22 11.9993 22ZM7.55113 11.6484C8.01976 12.1171 8.77956 12.1171 9.24819 11.6484L10.7997 10.097V16.9999C10.7997 17.5522 11.2474 17.9999 11.7997 17.9999H12.1997C12.7519 17.9999 13.1997 17.5522 13.1997 16.9999V10.097L14.7511 11.6484C15.2198 12.1171 15.9796 12.1171 16.4482 11.6484C16.9168 11.1798 16.9168 10.42 16.4482 9.95137L12.8482 6.35137C12.3796 5.88275 11.6198 5.88275 11.1511 6.35137L7.55113 9.95137C7.0825 10.42 7.0825 11.1798 7.55113 11.6484Z" fill="black"/>
</svg>
